<?xml version="1.0" encoding="iso-8859-1"?>
<!-- Uploaded to: SVG Repo, www.svgrepo.com, Generator: SVG Repo Mixer Tools -->
<svg fill="#000000" height="800px" width="800px" version="1.1" id="Layer_1" xmlns="http://www.w3.org/2000/svg" xmlns:xlink="http://www.w3.org/1999/xlink" 
	 viewBox="0 0 351.454 351.454" xml:space="preserve">
<g>
	<g>
		<g>
			<path d="M350.32,23.06c-1.052-0.956-2.576-1.148-3.848-0.512L92.74,151.568c-1.092,0.556-1.808,1.656-1.868,2.88
				c-0.064,1.224,0.532,2.388,1.564,3.056l64.276,41.476l7.948,58.456c0.148,1.096,0.82,2.056,1.796,2.568
				c0.504,0.268,1.048,0.396,1.6,0.396c0.524,0,1.052-0.124,1.54-0.368l51.592-25.924l39.284,19.14
				c0.872,0.428,1.868,0.468,2.76,0.108c0.892-0.352,1.6-1.064,1.94-1.96c0,0,86.488-222.784,85.836-223.996l0.22-0.568
				C351.732,25.512,351.376,24.012,350.32,23.06z M101.16,154.98L334.496,36.332l-176.652,155.22L101.16,154.98z M294.36,80.728
				l20.46-17.976l-20.176,23.712c-0.284-1.716-0.356-3.46-0.22-5.236C294.436,81.036,294.38,80.892,294.36,80.728z M290.848,90.924
				l-13.924,16.364c-0.368-3.048-0.736-6.096-1.104-9.144c-0.04-0.336-0.152-0.616-0.288-0.876l14.08-12.368
				C289.768,86.952,290.192,88.956,290.848,90.924z M272.684,112.268l-11.128,13.084c-0.544-4.628-1.084-9.256-1.628-13.888
				c-0.016-0.144-0.088-0.248-0.124-0.376l11.52-10.124C271.776,104.732,272.232,108.5,272.684,112.268z M257.304,130.344
				l-12.412,14.596c-0.704-5.708-1.404-11.412-2.108-17.12c-0.064-0.528-0.292-0.928-0.572-1.276l13.28-11.668
				C256.096,120.032,256.7,125.192,257.304,130.344z M240.664,149.908l-12.268,14.416c-0.776-7.744-1.548-15.484-2.324-23.228
				c-0.012-0.112-0.064-0.192-0.088-0.292l12.236-10.748C239.036,136.672,239.848,143.292,240.664,149.908z M224.068,169.408
				l-8.892,10.456c-1.336-8.684-2.668-17.364-4.004-26.044l10.42-9.16C222.42,152.912,223.24,161.16,224.068,169.408z M211.06,184.7
				l-10.988,12.912c-1.004-10.46-2.012-20.924-3.016-31.388l9.836-8.644C208.28,166.62,209.672,175.66,211.06,184.7z
				 M195.728,202.724l-6.1,7.168c-0.076,0.088-0.128,0.2-0.196,0.296c-0.028,0.04-0.072,0.06-0.096,0.1
				c-0.02,0.036-0.02,0.072-0.04,0.108c-0.04,0.064-0.096,0.124-0.128,0.192l-4.544,9.164c-1.084-13.304-2.044-26.616-2.808-39.944
				c-0.004-0.06-0.036-0.1-0.04-0.156l10.82-9.508C193.64,181.004,194.684,191.864,195.728,202.724z M163.292,196.492
				c-0.02-0.164-0.124-0.3-0.164-0.456l14.1-12.392c0.888,14.856,1.948,29.696,3.228,44.524l-10.088,20.352L163.292,196.492z
				 M178.268,248.004l15.36-30.976l20.564,12.924L178.268,248.004z M260.112,245.452l-37.288-18.168l-25.404-15.968L335.296,49.268
				L260.112,245.452z"/>
			<path d="M3.908,224.328c0.168,0.024,0.336,0.04,0.504,0.04c1.672,0,3.136-1.228,3.388-2.932c0.32-2.18,0.72-4.336,1.2-6.476
				c0.412-1.848-0.752-3.68-2.6-4.092c-1.852-0.42-3.68,0.752-4.092,2.6c-0.516,2.3-0.948,4.624-1.292,6.968
				C0.74,222.312,2.036,224.056,3.908,224.328z"/>
			<path d="M4.764,250.22c1.876-0.264,3.18-2,2.92-3.868c-0.548-3.924-0.828-7.964-0.828-12l0.004-1.108
				c0.024-1.896-1.492-3.448-3.384-3.472h-0.04c-1.876,0-3.404,1.508-3.428,3.388L0,234.352c0,4.348,0.3,8.704,0.896,12.944
				c0.236,1.716,1.708,2.956,3.388,2.956C4.444,250.252,4.604,250.24,4.764,250.22z"/>
			<path d="M155.46,287.936c-1.776-0.668-3.752,0.212-4.424,1.98c-1.616,4.224-3.532,8.156-5.704,11.684
				c-0.992,1.608-0.488,3.72,1.124,4.716c0.56,0.344,1.18,0.512,1.792,0.512c1.152,0,2.276-0.58,2.92-1.632
				c2.396-3.892,4.504-8.208,6.272-12.828C158.116,290.592,157.232,288.612,155.46,287.936z"/>
			<path d="M14.856,270.04c-1.888-3.832-3.472-7.92-4.712-12.16c-0.524-1.82-2.428-2.84-4.248-2.336
				c-1.816,0.532-2.864,2.432-2.328,4.252c1.344,4.62,3.076,9.084,5.144,13.276c0.596,1.208,1.812,1.912,3.076,1.912
				c0.512,0,1.028-0.116,1.512-0.356C14.996,273.788,15.692,271.736,14.856,270.04z"/>
			<path d="M78.524,302.344c-0.24-0.552-0.472-1.108-0.684-1.676c1.26-1.012,1.664-2.804,0.876-4.284
				c-0.548-1.024-1.532-1.652-2.596-1.788c-0.28-1.428-0.484-2.876-0.608-4.356c-0.156-1.888-1.852-3.348-3.7-3.132
				c-1.888,0.156-3.288,1.812-3.132,3.696c0.176,2.112,0.488,4.188,0.936,6.208c-2.392,0.924-4.856,1.608-7.36,2.036
				c-1.868,0.316-3.12,2.088-2.804,3.952c0.324,1.872,2.108,3.124,3.96,2.804c2.796-0.48,5.532-1.22,8.204-2.216
				c0.2,0.504,0.404,1.004,0.624,1.5c0.564,1.284,1.82,2.056,3.144,2.056c0.46,0,0.924-0.092,1.368-0.288
				C78.488,306.1,79.28,304.08,78.524,302.344z"/>
			<path d="M51.024,299.292c-4.116-0.52-8.152-1.716-11.996-3.544c-1.704-0.812-3.756-0.088-4.568,1.62s-0.088,3.756,1.624,4.568
				c4.504,2.144,9.244,3.544,14.084,4.156c0.148,0.02,0.292,0.028,0.436,0.028c1.7,0,3.176-1.268,3.396-3
				C54.232,301.248,52.9,299.528,51.024,299.292z"/>
			<path d="M138.308,310.728c-3.052,3.144-6.408,5.692-9.968,7.568c-1.672,0.884-2.312,2.956-1.428,4.636
				c0.612,1.16,1.8,1.828,3.032,1.828c0.54,0,1.088-0.128,1.6-0.396c4.196-2.216,8.128-5.196,11.684-8.852
				c1.32-1.364,1.288-3.528-0.068-4.848C141.8,309.352,139.628,309.372,138.308,310.728z"/>
			<path d="M24.288,284.34c-1.2-1.388-2.332-2.816-3.4-4.284c-1.112-1.532-3.256-1.872-4.788-0.756
				c-1.532,1.116-1.868,3.26-0.752,4.792c1.18,1.62,2.428,3.196,3.752,4.728c1.86,2.156,3.864,4.152,5.964,5.94
				c0.644,0.552,1.432,0.82,2.22,0.82c0.972,0,1.932-0.412,2.612-1.204c1.228-1.44,1.052-3.604-0.388-4.832
				C27.676,287.976,25.92,286.224,24.288,284.34z"/>
			<path d="M96,277.324c-1.608-0.992-3.724-0.492-4.716,1.124c-0.624,1.004-1.196,1.872-1.68,2.552
				c-1.916,2.704-4.048,5.164-6.34,7.328c-1.38,1.3-1.44,3.468-0.14,4.848c0.672,0.716,1.58,1.08,2.492,1.08
				c0.844,0,1.692-0.312,2.352-0.936c2.616-2.472,5.052-5.284,7.232-8.348c0.556-0.784,1.212-1.772,1.924-2.932
				C98.116,280.428,97.612,278.316,96,277.324z"/>
			<path d="M102.98,270.592c2.012-4.976,3.032-9.368,3.032-13.056c0-0.628-0.028-1.244-0.088-1.848
				c-0.192-1.884-1.868-3.208-3.756-3.068c-1.88,0.192-3.256,1.872-3.064,3.756c0.04,0.376,0.056,0.764,0.056,1.16
				c0,2.764-0.876,6.392-2.532,10.488c-0.712,1.752,0.136,3.748,1.892,4.464c0.42,0.168,0.852,0.252,1.284,0.252
				C101.156,272.736,102.44,271.924,102.98,270.592z"/>
			<path d="M94.464,318.864c-3.772-1.768-7.104-4.2-9.896-7.224c-1.288-1.388-3.46-1.472-4.844-0.192
				c-1.392,1.284-1.476,3.456-0.192,4.848c3.396,3.676,7.444,6.632,12.024,8.772c0.468,0.224,0.964,0.328,1.452,0.328
				c1.288,0,2.524-0.732,3.108-1.972C96.916,321.708,96.18,319.668,94.464,318.864z"/>
			<path d="M72.112,281.66c0.208,0.04,0.42,0.056,0.628,0.056c1.62,0,3.06-1.16,3.364-2.804c0.36-1.952,0.86-3.904,1.476-5.8
				c0.564-1.744,1.508-4.024,2.588-6.256c0.828-1.704,0.116-3.756-1.592-4.58c-1.712-0.844-3.752-0.112-4.576,1.592
				c-1.208,2.5-2.28,5.096-2.94,7.12c-0.708,2.176-1.28,4.424-1.696,6.672C69.02,279.524,70.248,281.316,72.112,281.66z"/>
			<path d="M81.356,257.572c0.632,0.504,1.388,0.748,2.14,0.748c1.004,0,2.004-0.444,2.676-1.288
				c2.916-3.644,5.788-5.648,8.088-5.648l0.432-3.416l-0.224,3.424c1.836,0.108,3.52-1.312,3.644-3.2
				c0.124-1.884-1.308-3.52-3.196-3.644c-0.076-0.004-0.58-0.02-0.656-0.02c-4.552,0-9.072,2.768-13.44,8.224
				C79.636,254.232,79.876,256.388,81.356,257.572z"/>
			<path d="M117.784,321.888c-3.948,0.668-8.224,0.704-12.54,0.088c-1.872-0.236-3.612,1.04-3.872,2.916
				c-0.264,1.876,1.04,3.612,2.912,3.88c2.376,0.336,4.756,0.504,7.076,0.504c2.58,0,5.128-0.212,7.572-0.632
				c1.868-0.316,3.124-2.088,2.804-3.952C121.42,322.824,119.64,321.572,117.784,321.888z"/>
			<path d="M159.6,268.976c-1.852-0.256-3.616,1.016-3.896,2.892c-0.32,2.16-0.724,4.332-1.208,6.488
				c-0.416,1.848,0.748,3.68,2.592,4.096c0.252,0.056,0.504,0.084,0.752,0.084c1.568,0,2.984-1.084,3.344-2.676
				c0.52-2.32,0.956-4.66,1.3-6.992C162.764,270.996,161.476,269.256,159.6,268.976z"/>
			<path d="M259.924,222.392c2.592-6.216,5.188-12.436,7.78-18.656c1.2-2.872-3.48-4.12-4.664-1.284
				c-2.592,6.216-5.188,12.436-7.78,18.656C254.064,223.976,258.744,225.228,259.924,222.392z"/>
			<path d="M272.896,191.3c5.188-12.436,10.376-24.872,15.564-37.308c1.2-2.872-3.48-4.12-4.664-1.284
				c-5.188,12.436-10.376,24.872-15.564,37.308C267.036,192.884,271.712,194.136,272.896,191.3z"/>
		</g>
	</g>
</g>
</svg>